<?xml version="1.0" encoding="UTF-8" standalone="no"?>
<svg
   viewBox="0 0 666.66669 666.66669"
   height="666.66669"
   width="666.66669"
   xml:space="preserve"
   id="svg2"
   version="1.1"
   sodipodi:docname="ZC_as_path.svg"
   inkscape:version="1.1.1 (3bf5ae0d25, 2021-09-20, custom)"
   xmlns:inkscape="http://www.inkscape.org/namespaces/inkscape"
   xmlns:sodipodi="http://sodipodi.sourceforge.net/DTD/sodipodi-0.dtd"
   xmlns="http://www.w3.org/2000/svg"
   xmlns:svg="http://www.w3.org/2000/svg"
   xmlns:rdf="http://www.w3.org/1999/02/22-rdf-syntax-ns#"
   xmlns:cc="http://creativecommons.org/ns#"
   xmlns:dc="http://purl.org/dc/elements/1.1/"><sodipodi:namedview
     id="namedview79"
     pagecolor="#505050"
     bordercolor="#eeeeee"
     borderopacity="1"
     inkscape:pageshadow="0"
     inkscape:pageopacity="0"
     inkscape:pagecheckerboard="0"
     showgrid="false"
     inkscape:zoom="0.90262178"
     inkscape:cx="211.05185"
     inkscape:cy="295.25102"
     inkscape:window-width="1916"
     inkscape:window-height="1044"
     inkscape:window-x="1920"
     inkscape:window-y="16"
     inkscape:window-maximized="1"
     inkscape:current-layer="svg2" /><metadata
     id="metadata8"><rdf:RDF><cc:Work
         rdf:about=""><dc:format>image/svg+xml</dc:format><dc:type
           rdf:resource="http://purl.org/dc/dcmitype/StillImage" /></cc:Work></rdf:RDF></metadata><defs
     id="defs6"><clipPath
   id="clipPath18"
   clipPathUnits="userSpaceOnUse"><path
     id="path16"
     d="M 0,500 H 500 V 0 H 0 Z" /></clipPath>
</defs><g
     transform="matrix(1.3333333,0,0,-1.3333333,-22.593147,685.50039)"
     id="g10"><g
       id="g12"><g
         clip-path="url(#clipPath18)"
         id="g14"><g
   aria-label="ZC"
   transform="matrix(1,0,0,-1,64.0005,173.0879)"
   id="text24"
   style="font-size:494px;font-family:'Times New Roman';-inkscape-font-specification:TimesNewRoman"><path
     d="M 284.14648,-327.08203 69.227539,-19.779297 H 203.34082 q 30.875,0 47.27734,-13.507812 16.64356,-13.507813 29.42774,-54.754883 l 7.95996,1.447265 L 272.56836,0 H 6.2714844 V -8.9248047 L 216.125,-307.54395 H 111.43945 q -26.050778,0 -37.870114,5.78907 -11.578125,5.54785 -17.849609,16.40234 -6.030274,10.61328 -11.095704,40.04102 h -9.166015 l 6.753906,-81.77051 z"
     id="path161" /><path
     d="m 388.89455,-193.41675 7.47754,111.198244 h -7.47754 q -14.95508,-49.930664 -42.69434,-71.880864 -27.73926,-21.95019 -66.57422,-21.95019 -32.56347,0 -58.85547,16.64355 -26.29199,16.40235 -41.48828,52.58399 -14.95508,36.181639 -14.95508,89.971678 0,44.382813 14.23145,76.946289 14.23144,32.563477 42.69433,49.930663 28.70411,17.36719 65.36817,17.36719 31.83984,0 56.20215,-13.50781 24.3623,-13.74903 53.54883,-54.272465 l 7.47753,4.824219 q -24.60351,43.659176 -57.4082,63.920896 -32.80469,20.26172 -77.91113,20.26172 -81.28809,0 -125.91211,-60.302733 -33.28711,-44.865234 -33.28711,-105.650391 0,-48.96582 21.9502,-89.971676 21.95019,-41.00586 60.30273,-63.43848 38.59375,-22.67383 84.18262,-22.67383 35.458,0 69.95117,17.36719 10.13086,5.30664 14.47265,5.30664 6.5127,0 11.33692,-4.58301 6.27148,-6.51269 8.9248,-18.09082 z"
     id="path163" /></g>
</g></g></g></svg>
